<mxfile host="app.diagrams.net" agent="Mozilla/5.0 (Windows NT 10.0; Win64; x64; rv:138.0) Gecko/20100101 Firefox/138.0" version="26.2.14">
  <diagram name="Strona-1" id="pWzDlqazamSVAgVZe7hO">
    <mxGraphModel dx="679" dy="358" grid="1" gridSize="10" guides="1" tooltips="1" connect="1" arrows="1" fold="1" page="1" pageScale="1" pageWidth="827" pageHeight="1169" math="0" shadow="0">
      <root>
        <mxCell id="0" />
        <mxCell id="1" parent="0" />
        <mxCell id="e22cdNbLZQIzQA2mhys_-4" style="edgeStyle=orthogonalEdgeStyle;rounded=0;orthogonalLoop=1;jettySize=auto;html=1;entryX=0.5;entryY=0;entryDx=0;entryDy=0;" edge="1" parent="1" source="e22cdNbLZQIzQA2mhys_-1" target="e22cdNbLZQIzQA2mhys_-2">
          <mxGeometry relative="1" as="geometry">
            <Array as="points">
              <mxPoint x="60" y="20" />
              <mxPoint x="140" y="20" />
            </Array>
          </mxGeometry>
        </mxCell>
        <mxCell id="e22cdNbLZQIzQA2mhys_-8" value="S1" style="edgeLabel;html=1;align=center;verticalAlign=middle;resizable=0;points=[];" vertex="1" connectable="0" parent="e22cdNbLZQIzQA2mhys_-4">
          <mxGeometry x="-0.3802" y="1" relative="1" as="geometry">
            <mxPoint x="23" as="offset" />
          </mxGeometry>
        </mxCell>
        <mxCell id="e22cdNbLZQIzQA2mhys_-1" value="&lt;font style=&quot;font-size: 6px;&quot;&gt;LED_LEFT&lt;/font&gt;" style="ellipse;whiteSpace=wrap;html=1;" vertex="1" parent="1">
          <mxGeometry x="40" y="40" width="40" height="40" as="geometry" />
        </mxCell>
        <mxCell id="e22cdNbLZQIzQA2mhys_-5" style="edgeStyle=orthogonalEdgeStyle;rounded=0;orthogonalLoop=1;jettySize=auto;html=1;" edge="1" parent="1" source="e22cdNbLZQIzQA2mhys_-2" target="e22cdNbLZQIzQA2mhys_-1">
          <mxGeometry relative="1" as="geometry" />
        </mxCell>
        <mxCell id="e22cdNbLZQIzQA2mhys_-10" value="S0" style="edgeLabel;html=1;align=center;verticalAlign=middle;resizable=0;points=[];" vertex="1" connectable="0" parent="e22cdNbLZQIzQA2mhys_-5">
          <mxGeometry x="-0.05" relative="1" as="geometry">
            <mxPoint as="offset" />
          </mxGeometry>
        </mxCell>
        <mxCell id="e22cdNbLZQIzQA2mhys_-6" style="edgeStyle=orthogonalEdgeStyle;rounded=0;orthogonalLoop=1;jettySize=auto;html=1;" edge="1" parent="1" source="e22cdNbLZQIzQA2mhys_-2" target="e22cdNbLZQIzQA2mhys_-3">
          <mxGeometry relative="1" as="geometry" />
        </mxCell>
        <mxCell id="e22cdNbLZQIzQA2mhys_-11" value="&lt;div&gt;S2&lt;/div&gt;" style="edgeLabel;html=1;align=center;verticalAlign=middle;resizable=0;points=[];" vertex="1" connectable="0" parent="e22cdNbLZQIzQA2mhys_-6">
          <mxGeometry x="-0.331" y="2" relative="1" as="geometry">
            <mxPoint y="2" as="offset" />
          </mxGeometry>
        </mxCell>
        <mxCell id="e22cdNbLZQIzQA2mhys_-2" value="&lt;font style=&quot;font-size: 7px;&quot;&gt;LED_STOP&lt;/font&gt;" style="ellipse;whiteSpace=wrap;html=1;" vertex="1" parent="1">
          <mxGeometry x="120" y="40" width="40" height="40" as="geometry" />
        </mxCell>
        <mxCell id="e22cdNbLZQIzQA2mhys_-7" style="edgeStyle=orthogonalEdgeStyle;rounded=0;orthogonalLoop=1;jettySize=auto;html=1;entryX=1;entryY=1;entryDx=0;entryDy=0;" edge="1" parent="1" source="e22cdNbLZQIzQA2mhys_-3" target="e22cdNbLZQIzQA2mhys_-2">
          <mxGeometry relative="1" as="geometry">
            <Array as="points">
              <mxPoint x="220" y="100" />
              <mxPoint x="170" y="100" />
              <mxPoint x="170" y="74" />
            </Array>
          </mxGeometry>
        </mxCell>
        <mxCell id="e22cdNbLZQIzQA2mhys_-9" value="&lt;div&gt;S1&lt;/div&gt;" style="edgeLabel;html=1;align=center;verticalAlign=middle;resizable=0;points=[];" vertex="1" connectable="0" parent="e22cdNbLZQIzQA2mhys_-7">
          <mxGeometry x="0.0151" y="2" relative="1" as="geometry">
            <mxPoint y="-2" as="offset" />
          </mxGeometry>
        </mxCell>
        <mxCell id="e22cdNbLZQIzQA2mhys_-3" value="&lt;font style=&quot;font-size: 6px;&quot;&gt;LED_RIGHT&lt;/font&gt;" style="ellipse;whiteSpace=wrap;html=1;" vertex="1" parent="1">
          <mxGeometry x="200" y="40" width="40" height="40" as="geometry" />
        </mxCell>
        <mxCell id="e22cdNbLZQIzQA2mhys_-13" value="" style="curved=1;endArrow=classic;html=1;rounded=0;exitX=0.5;exitY=1;exitDx=0;exitDy=0;entryX=0;entryY=1;entryDx=0;entryDy=0;" edge="1" parent="1" source="e22cdNbLZQIzQA2mhys_-2" target="e22cdNbLZQIzQA2mhys_-2">
          <mxGeometry width="50" height="50" relative="1" as="geometry">
            <mxPoint x="110" y="130" as="sourcePoint" />
            <mxPoint x="160" y="80" as="targetPoint" />
            <Array as="points">
              <mxPoint x="140" y="110" />
              <mxPoint x="100" y="100" />
              <mxPoint x="110" y="80" />
            </Array>
          </mxGeometry>
        </mxCell>
        <mxCell id="e22cdNbLZQIzQA2mhys_-14" value="" style="curved=1;endArrow=classic;html=1;rounded=0;entryX=0.001;entryY=0.621;entryDx=0;entryDy=0;entryPerimeter=0;" edge="1" parent="1" target="e22cdNbLZQIzQA2mhys_-1">
          <mxGeometry width="50" height="50" relative="1" as="geometry">
            <mxPoint x="60" y="80" as="sourcePoint" />
            <mxPoint x="46" y="70" as="targetPoint" />
            <Array as="points">
              <mxPoint x="60" y="106" />
              <mxPoint x="20" y="96" />
              <mxPoint x="30" y="76" />
            </Array>
          </mxGeometry>
        </mxCell>
        <mxCell id="e22cdNbLZQIzQA2mhys_-19" value="" style="curved=1;endArrow=classic;html=1;rounded=0;entryX=0.5;entryY=0;entryDx=0;entryDy=0;" edge="1" parent="1" target="e22cdNbLZQIzQA2mhys_-3">
          <mxGeometry width="50" height="50" relative="1" as="geometry">
            <mxPoint x="240" y="60" as="sourcePoint" />
            <mxPoint x="290" y="10" as="targetPoint" />
            <Array as="points">
              <mxPoint x="290" y="60" />
              <mxPoint x="240" y="10" />
            </Array>
          </mxGeometry>
        </mxCell>
        <mxCell id="e22cdNbLZQIzQA2mhys_-20" value="&lt;div&gt;Zad 6&lt;/div&gt;" style="text;html=1;align=center;verticalAlign=middle;whiteSpace=wrap;rounded=0;" vertex="1" parent="1">
          <mxGeometry x="90" y="130" width="60" height="30" as="geometry" />
        </mxCell>
        <mxCell id="e22cdNbLZQIzQA2mhys_-26" style="edgeStyle=orthogonalEdgeStyle;rounded=0;orthogonalLoop=1;jettySize=auto;html=1;" edge="1" parent="1" source="e22cdNbLZQIzQA2mhys_-28" target="e22cdNbLZQIzQA2mhys_-31">
          <mxGeometry relative="1" as="geometry" />
        </mxCell>
        <mxCell id="e22cdNbLZQIzQA2mhys_-27" value="&lt;div&gt;S1&lt;/div&gt;" style="edgeLabel;html=1;align=center;verticalAlign=middle;resizable=0;points=[];" vertex="1" connectable="0" parent="e22cdNbLZQIzQA2mhys_-26">
          <mxGeometry x="-0.331" y="2" relative="1" as="geometry">
            <mxPoint y="2" as="offset" />
          </mxGeometry>
        </mxCell>
        <mxCell id="e22cdNbLZQIzQA2mhys_-28" value="&lt;font style=&quot;font-size: 7px;&quot;&gt;LED_STOP&lt;/font&gt;" style="ellipse;whiteSpace=wrap;html=1;" vertex="1" parent="1">
          <mxGeometry x="440" y="40" width="40" height="40" as="geometry" />
        </mxCell>
        <mxCell id="e22cdNbLZQIzQA2mhys_-38" style="edgeStyle=orthogonalEdgeStyle;rounded=0;orthogonalLoop=1;jettySize=auto;html=1;entryX=0.5;entryY=1;entryDx=0;entryDy=0;" edge="1" parent="1" source="e22cdNbLZQIzQA2mhys_-31" target="e22cdNbLZQIzQA2mhys_-28">
          <mxGeometry relative="1" as="geometry">
            <Array as="points">
              <mxPoint x="540" y="100" />
              <mxPoint x="460" y="100" />
            </Array>
          </mxGeometry>
        </mxCell>
        <mxCell id="e22cdNbLZQIzQA2mhys_-39" value="&lt;div&gt;S0&lt;/div&gt;" style="edgeLabel;html=1;align=center;verticalAlign=middle;resizable=0;points=[];" vertex="1" connectable="0" parent="e22cdNbLZQIzQA2mhys_-38">
          <mxGeometry x="-0.1437" y="-1" relative="1" as="geometry">
            <mxPoint as="offset" />
          </mxGeometry>
        </mxCell>
        <mxCell id="e22cdNbLZQIzQA2mhys_-31" value="&lt;font style=&quot;font-size: 6px;&quot;&gt;LED_RIGHT&lt;/font&gt;" style="ellipse;whiteSpace=wrap;html=1;" vertex="1" parent="1">
          <mxGeometry x="520" y="40" width="40" height="40" as="geometry" />
        </mxCell>
        <mxCell id="e22cdNbLZQIzQA2mhys_-34" value="" style="curved=1;endArrow=classic;html=1;rounded=0;entryX=0.5;entryY=0;entryDx=0;entryDy=0;" edge="1" parent="1" target="e22cdNbLZQIzQA2mhys_-31">
          <mxGeometry width="50" height="50" relative="1" as="geometry">
            <mxPoint x="560" y="60" as="sourcePoint" />
            <mxPoint x="610" y="10" as="targetPoint" />
            <Array as="points">
              <mxPoint x="610" y="60" />
              <mxPoint x="560" y="10" />
            </Array>
          </mxGeometry>
        </mxCell>
        <mxCell id="e22cdNbLZQIzQA2mhys_-37" value="" style="curved=1;endArrow=classic;html=1;rounded=0;entryX=0.5;entryY=0;entryDx=0;entryDy=0;exitX=0;exitY=0.5;exitDx=0;exitDy=0;" edge="1" parent="1" source="e22cdNbLZQIzQA2mhys_-28" target="e22cdNbLZQIzQA2mhys_-28">
          <mxGeometry width="50" height="50" relative="1" as="geometry">
            <mxPoint x="380" y="60" as="sourcePoint" />
            <mxPoint x="360" y="40" as="targetPoint" />
            <Array as="points">
              <mxPoint x="430" y="60" />
              <mxPoint x="400" y="50" />
              <mxPoint x="410" y="30" />
              <mxPoint x="450" y="10" />
            </Array>
          </mxGeometry>
        </mxCell>
        <mxCell id="e22cdNbLZQIzQA2mhys_-40" style="edgeStyle=orthogonalEdgeStyle;rounded=0;orthogonalLoop=1;jettySize=auto;html=1;" edge="1" parent="1" source="e22cdNbLZQIzQA2mhys_-42" target="e22cdNbLZQIzQA2mhys_-45">
          <mxGeometry relative="1" as="geometry" />
        </mxCell>
        <mxCell id="e22cdNbLZQIzQA2mhys_-41" value="&lt;div&gt;S1&lt;/div&gt;" style="edgeLabel;html=1;align=center;verticalAlign=middle;resizable=0;points=[];" vertex="1" connectable="0" parent="e22cdNbLZQIzQA2mhys_-40">
          <mxGeometry x="-0.331" y="2" relative="1" as="geometry">
            <mxPoint y="2" as="offset" />
          </mxGeometry>
        </mxCell>
        <mxCell id="e22cdNbLZQIzQA2mhys_-42" value="&lt;font style=&quot;font-size: 7px;&quot;&gt;LED_STOP&lt;/font&gt;" style="ellipse;whiteSpace=wrap;html=1;" vertex="1" parent="1">
          <mxGeometry x="680" y="40" width="40" height="40" as="geometry" />
        </mxCell>
        <mxCell id="e22cdNbLZQIzQA2mhys_-43" style="edgeStyle=orthogonalEdgeStyle;rounded=0;orthogonalLoop=1;jettySize=auto;html=1;entryX=0.5;entryY=1;entryDx=0;entryDy=0;" edge="1" parent="1" source="e22cdNbLZQIzQA2mhys_-45" target="e22cdNbLZQIzQA2mhys_-42">
          <mxGeometry relative="1" as="geometry">
            <Array as="points">
              <mxPoint x="780" y="100" />
              <mxPoint x="700" y="100" />
            </Array>
          </mxGeometry>
        </mxCell>
        <mxCell id="e22cdNbLZQIzQA2mhys_-44" value="&lt;div&gt;StepCounter = 3&lt;/div&gt;" style="edgeLabel;html=1;align=center;verticalAlign=middle;resizable=0;points=[];" vertex="1" connectable="0" parent="e22cdNbLZQIzQA2mhys_-43">
          <mxGeometry x="-0.1437" y="-1" relative="1" as="geometry">
            <mxPoint x="-9" y="11" as="offset" />
          </mxGeometry>
        </mxCell>
        <mxCell id="e22cdNbLZQIzQA2mhys_-45" value="&lt;font style=&quot;font-size: 6px;&quot;&gt;LED_RIGHT&lt;/font&gt;" style="ellipse;whiteSpace=wrap;html=1;" vertex="1" parent="1">
          <mxGeometry x="760" y="40" width="40" height="40" as="geometry" />
        </mxCell>
        <mxCell id="e22cdNbLZQIzQA2mhys_-46" value="" style="curved=1;endArrow=classic;html=1;rounded=0;entryX=0.5;entryY=0;entryDx=0;entryDy=0;" edge="1" parent="1" target="e22cdNbLZQIzQA2mhys_-45">
          <mxGeometry width="50" height="50" relative="1" as="geometry">
            <mxPoint x="800" y="60" as="sourcePoint" />
            <mxPoint x="850" y="10" as="targetPoint" />
            <Array as="points">
              <mxPoint x="850" y="60" />
              <mxPoint x="800" y="10" />
            </Array>
          </mxGeometry>
        </mxCell>
        <mxCell id="e22cdNbLZQIzQA2mhys_-47" value="" style="curved=1;endArrow=classic;html=1;rounded=0;entryX=0.5;entryY=0;entryDx=0;entryDy=0;exitX=0;exitY=0.5;exitDx=0;exitDy=0;" edge="1" parent="1" source="e22cdNbLZQIzQA2mhys_-42" target="e22cdNbLZQIzQA2mhys_-42">
          <mxGeometry width="50" height="50" relative="1" as="geometry">
            <mxPoint x="620" y="60" as="sourcePoint" />
            <mxPoint x="600" y="40" as="targetPoint" />
            <Array as="points">
              <mxPoint x="670" y="60" />
              <mxPoint x="640" y="50" />
              <mxPoint x="650" y="30" />
              <mxPoint x="690" y="10" />
            </Array>
          </mxGeometry>
        </mxCell>
        <mxCell id="e22cdNbLZQIzQA2mhys_-48" value="&lt;div&gt;Zad 5&lt;/div&gt;" style="text;html=1;align=center;verticalAlign=middle;whiteSpace=wrap;rounded=0;" vertex="1" parent="1">
          <mxGeometry x="470" y="120" width="60" height="30" as="geometry" />
        </mxCell>
        <mxCell id="e22cdNbLZQIzQA2mhys_-49" value="&lt;div&gt;Zad 4&lt;/div&gt;" style="text;html=1;align=center;verticalAlign=middle;whiteSpace=wrap;rounded=0;" vertex="1" parent="1">
          <mxGeometry x="710" y="120" width="60" height="30" as="geometry" />
        </mxCell>
        <mxCell id="e22cdNbLZQIzQA2mhys_-51" style="edgeStyle=orthogonalEdgeStyle;rounded=0;orthogonalLoop=1;jettySize=auto;html=1;" edge="1" parent="1" source="e22cdNbLZQIzQA2mhys_-53" target="e22cdNbLZQIzQA2mhys_-56">
          <mxGeometry relative="1" as="geometry" />
        </mxCell>
        <mxCell id="e22cdNbLZQIzQA2mhys_-52" value="&lt;div&gt;StepCounter = 3&lt;/div&gt;" style="edgeLabel;html=1;align=center;verticalAlign=middle;resizable=0;points=[];" vertex="1" connectable="0" parent="e22cdNbLZQIzQA2mhys_-51">
          <mxGeometry x="-0.331" y="2" relative="1" as="geometry">
            <mxPoint x="13" y="2" as="offset" />
          </mxGeometry>
        </mxCell>
        <mxCell id="e22cdNbLZQIzQA2mhys_-53" value="&lt;font style=&quot;font-size: 7px;&quot;&gt;LED_STOP&lt;/font&gt;" style="ellipse;whiteSpace=wrap;html=1;" vertex="1" parent="1">
          <mxGeometry x="920" y="40" width="40" height="40" as="geometry" />
        </mxCell>
        <mxCell id="e22cdNbLZQIzQA2mhys_-54" style="edgeStyle=orthogonalEdgeStyle;rounded=0;orthogonalLoop=1;jettySize=auto;html=1;entryX=0.5;entryY=1;entryDx=0;entryDy=0;" edge="1" parent="1" source="e22cdNbLZQIzQA2mhys_-56" target="e22cdNbLZQIzQA2mhys_-53">
          <mxGeometry relative="1" as="geometry">
            <Array as="points">
              <mxPoint x="1090" y="100" />
              <mxPoint x="940" y="100" />
            </Array>
          </mxGeometry>
        </mxCell>
        <mxCell id="e22cdNbLZQIzQA2mhys_-55" value="&lt;div&gt;StepCounter = 3&lt;/div&gt;" style="edgeLabel;html=1;align=center;verticalAlign=middle;resizable=0;points=[];" vertex="1" connectable="0" parent="e22cdNbLZQIzQA2mhys_-54">
          <mxGeometry x="-0.1437" y="-1" relative="1" as="geometry">
            <mxPoint x="-9" y="1" as="offset" />
          </mxGeometry>
        </mxCell>
        <mxCell id="e22cdNbLZQIzQA2mhys_-56" value="&lt;font style=&quot;font-size: 6px;&quot;&gt;LED_RIGHT&lt;/font&gt;" style="ellipse;whiteSpace=wrap;html=1;" vertex="1" parent="1">
          <mxGeometry x="1070" y="40" width="40" height="40" as="geometry" />
        </mxCell>
        <mxCell id="e22cdNbLZQIzQA2mhys_-57" value="" style="curved=1;endArrow=classic;html=1;rounded=0;entryX=0.5;entryY=0;entryDx=0;entryDy=0;" edge="1" parent="1" target="e22cdNbLZQIzQA2mhys_-56">
          <mxGeometry width="50" height="50" relative="1" as="geometry">
            <mxPoint x="1110" y="60" as="sourcePoint" />
            <mxPoint x="1160" y="10" as="targetPoint" />
            <Array as="points">
              <mxPoint x="1160" y="60" />
              <mxPoint x="1110" y="10" />
            </Array>
          </mxGeometry>
        </mxCell>
        <mxCell id="e22cdNbLZQIzQA2mhys_-58" value="" style="curved=1;endArrow=classic;html=1;rounded=0;entryX=0.5;entryY=0;entryDx=0;entryDy=0;exitX=0;exitY=0.5;exitDx=0;exitDy=0;" edge="1" parent="1" source="e22cdNbLZQIzQA2mhys_-53" target="e22cdNbLZQIzQA2mhys_-53">
          <mxGeometry width="50" height="50" relative="1" as="geometry">
            <mxPoint x="860" y="60" as="sourcePoint" />
            <mxPoint x="840" y="40" as="targetPoint" />
            <Array as="points">
              <mxPoint x="910" y="60" />
              <mxPoint x="880" y="50" />
              <mxPoint x="890" y="30" />
              <mxPoint x="930" y="10" />
            </Array>
          </mxGeometry>
        </mxCell>
        <mxCell id="e22cdNbLZQIzQA2mhys_-59" value="&lt;div&gt;Zad 3&lt;/div&gt;" style="text;html=1;align=center;verticalAlign=middle;whiteSpace=wrap;rounded=0;" vertex="1" parent="1">
          <mxGeometry x="980" y="120" width="60" height="30" as="geometry" />
        </mxCell>
      </root>
    </mxGraphModel>
  </diagram>
</mxfile>
